PathFileType	4	(X/Y/Z)	/Users/itak/Documents/Research/Walk-IL/dataset/trc/00381_00012.trc
DataRate	CameraRate	NumFrames	NumMarkers	Units	OrigDataRate	OrigDataStartFrame	OrigNumFrames
100.000000	100.000000	4	54	mm	100.000000	121	487
Frame#	Time	RPSI			LPSI			L3			STRN			T10			C7			CLAV			RBAK			LBAK			LSHO			LUPA			LAEL			LAOL			LWTS			LWPS			LFRA			LHPS			LHTS			RSHO			RUPA			RAEL			RAOL			RWTS			RWPS			RFRA			RIFD			RHPS			RBHD			LFHD			RFHD			LBHD			LHIP			RASI			LASI			LKNE			LTHI			LANK			LTIP			LTOE			LMT1			LMT5			LHEE			RKNE			RTHI			RANK			RTIP			RTOE			RMT1			RMT5			RHEE			RHTS			RHIP			LIFD			*53			
		X1	Y1	Z1	X2	Y2	Z2	X3	Y3	Z3	X4	Y4	Z4	X5	Y5	Z5	X6	Y6	Z6	X7	Y7	Z7	X8	Y8	Z8	X9	Y9	Z9	X10	Y10	Z10	X11	Y11	Z11	X12	Y12	Z12	X13	Y13	Z13	X14	Y14	Z14	X15	Y15	Z15	X16	Y16	Z16	X17	Y17	Z17	X18	Y18	Z18	X19	Y19	Z19	X20	Y20	Z20	X21	Y21	Z21	X22	Y22	Z22	X23	Y23	Z23	X24	Y24	Z24	X25	Y25	Z25	X26	Y26	Z26	X27	Y27	Z27	X28	Y28	Z28	X29	Y29	Z29	X30	Y30	Z30	X31	Y31	Z31	X32	Y32	Z32	X33	Y33	Z33	X34	Y34	Z34	X35	Y35	Z35	X36	Y36	Z36	X37	Y37	Z37	X38	Y38	Z38	X39	Y39	Z39	X40	Y40	Z40	X41	Y41	Z41	X42	Y42	Z42	X43	Y43	Z43	X44	Y44	Z44	X45	Y45	Z45	X46	Y46	Z46	X47	Y47	Z47	X48	Y48	Z48	X49	Y49	Z49	X50	Y50	Z50	X51	Y51	Z51	X52	Y52	Z52	X53	Y53	Z53	X54	Y54	Z54	

122	1.21	-1556.606323242188	986.6812133789062	138.8210906982422	-1559.058959960938	980.7546997070312	6.407557487487793	-1560.790649414062	1054.95654296875	73.76970672607422	-1325.665161132812	1216.269653320312	84.07492065429688	-1573.625854492188	1159.2705078125	70.88166046142578	-1535.832397460938	1408.695068359375	61.21640014648438	-1381.15576171875	1334.083740234375	79.96542358398438	-1580.294067382812	1261.517944335938	125.0371017456055	-1542.659423828125	1371.775756835938	-42.5615234375	-1453.529052734375	1389.434448242188	-87.16954040527344	-1474.355102539062	1272.467895507812	-159.14111328125	-1453.895141601562	1078.046630859375	-189.3588409423828	-1509.522338867188	1052.612915039062	-130.0448913574219	-1328.281127929688	885.936767578125	-147.7579956054688	-1376.529418945312	861.5888061523438	-208.7041778564453	-1423.8583984375	978.2513427734375	-199.4922637939453	-1345.47119140625	780.8517456054688	-199.3356475830078	-1291.922729492188	792.9571533203125	-165.1014099121094	-1493.000366210938	1388.678466796875	223.4205780029297	-1512.789306640625	1324.785888671875	279.9140930175781	-1525.239990234375	1064.792846679688	323.4122924804688	-1535.199829101562	1054.382080078125	228.0607147216797	-1403.302490234375	847.1049194335938	316.09912109375	-1454.7353515625	838.162841796875	369.0016174316406	-1505.074340820312	999.6546020507812	343.9498596191406	-1409.756469726562	674.4171142578125	320.0430297851562	-1452.274291992188	748.5177612304688	370.6909790039062	-1497.8623046875	1604.265625	140.8663482666016	-1342.922119140625	1594.771728515625	14.80105876922607	-1363.393798828125	1606.100708007812	135.0982971191406	-1487.2138671875	1588.232666015625	-20.71395111083984	-1472.132934570312	968.744873046875	-108.8784103393555	-1341.548217773438	971.2717895507812	197.9909973144531	-1358.470458984375	965.174560546875	-66.47283172607422	-1436.993041992188	474.0213012695312	-87.34200286865234	-1440.003540039062	617.1176147460938	-99.8568115234375	-1563.978149414062	41.71643829345703	-52.2934455871582	-1501.90771484375	244.655517578125	-82.39844512939453	-1352.167846679688	56.92135620117188	12.5144214630127	-1431.609375	50.51812744140625	43.23185729980469	-1436.373413085938	41.9498405456543	-60.74183654785156	-1602.634765625	39.75530242919922	4.396280765533447	-1422.587890625	470.1711120605469	213.423095703125	-1393.779174804688	729.9241943359375	246.4436798095703	-1516.754028320312	58.52922058105469	185.2442626953125	-1423.598266601562	342.5955505371094	196.8101959228516	-1340.224365234375	41.14517593383789	119.8694534301758	-1415.171508789062	44.1877326965332	91.25634002685547	-1432.551025390625	49.69096374511719	190.2992706298828	-1590.928344726562	45.81512832641602	133.7081909179688	-1390.72216796875	741.59912109375	340.7882690429688	-1472.919189453125	959.8082885742188	254.1692352294922	-1299.507568359375	708.2550659179688	-145.3737030029297	nan	nan	nan	
123	1.22	-1554.706787109375	986.4429321289062	139.8436279296875	-1557.042602539062	980.5951538085938	7.431426525115967	-1558.81005859375	1054.971069335938	74.79130554199219	-1323.441528320312	1215.909301757812	85.45690155029297	-1571.391479492188	1159.3154296875	71.89121246337891	-1533.230346679688	1408.637329101562	62.42063140869141	-1378.797241210938	1333.78466796875	81.29788970947266	-1578.057739257812	1261.537719726562	126.0943222045898	-1540.048706054688	1371.800537109375	-41.4128303527832	-1450.792358398438	1389.32275390625	-85.87900543212891	-1471.640625	1272.355590820312	-157.8382568359375	-1451.199951171875	1078.01904296875	-188.1467132568359	-1506.902099609375	1052.528442382812	-128.9114685058594	-1324.558837890625	886.7745361328125	-146.7723541259766	-1372.707397460938	862.0755004882812	-207.6488189697266	-1420.81494140625	978.4219360351562	-198.4002227783203	-1340.998168945312	781.5736083984375	-198.3633422851562	-1287.943359375	794.000244140625	-164.2267761230469	-1490.634887695312	1388.501708984375	224.6590270996094	-1510.652587890625	1324.6220703125	281.0627136230469	-1524.160766601562	1064.667724609375	324.3057556152344	-1533.874633789062	1054.365478515625	228.8961639404297	-1403.441772460938	846.2528076171875	317.2452697753906	-1455.214111328125	837.5950927734375	369.935791015625	-1504.513427734375	999.4591674804688	344.900390625	-1411.158935546875	673.5926513671875	320.9838562011719	-1453.326049804688	747.9473266601562	371.5334777832031	-1495.285522460938	1604.129150390625	141.8949890136719	-1340.491455078125	1594.507202148438	15.6609468460083	-1360.814331054688	1605.988525390625	135.9852600097656	-1484.798583984375	1587.871337890625	-19.65903663635254	-1470.036010742188	968.7869262695312	-108.3999252319336	-1339.77099609375	970.888916015625	199.3694763183594	-1356.305541992188	965.0262451171875	-65.13600158691406	-1435.897827148438	473.9799499511719	-86.58177947998047	-1438.41259765625	617.0934448242188	-98.74958801269531	-1563.927490234375	41.66663360595703	-52.32401657104492	-1501.45068359375	244.8117370605469	-82.01209259033203	-1352.291870117188	56.22134399414062	12.65202045440674	-1431.77197265625	50.27215957641602	43.34852981567383	-1436.300903320312	41.85383224487305	-60.72787857055664	-1602.529907226562	39.86992263793945	4.322551727294922	-1421.575927734375	469.7836303710938	214.1732788085938	-1392.39794921875	729.4903564453125	247.4803314208984	-1516.7783203125	58.41499710083008	185.3266754150391	-1422.83642578125	342.2127685546875	197.3921051025391	-1340.137817382812	40.99440765380859	119.7840042114258	-1415.185302734375	44.1824951171875	91.29832458496094	-1432.515991210938	49.47624588012695	190.3557586669922	-1590.931884765625	45.81197357177734	133.8185424804688	-1391.76611328125	740.6448364257812	341.8831481933594	-1471.161376953125	959.3895263671875	255.2793731689453	-1294.406005859375	709.3059692382812	-144.5960845947266	nan	nan	nan	
124	1.23	-1552.7744140625	986.1634521484375	140.9137725830078	-1554.993774414062	980.38818359375	8.480626106262207	-1556.830078125	1054.995849609375	75.85382080078125	-1321.174560546875	1215.53125	86.88102722167969	-1569.087890625	1159.386596679688	72.90814971923828	-1530.566284179688	1408.59033203125	63.65134811401367	-1376.384765625	1333.468139648438	82.65732574462891	-1575.762084960938	1261.560302734375	127.1894760131836	-1537.38037109375	1371.820922851562	-40.25148391723633	-1447.997314453125	1389.197265625	-84.56882476806641	-1468.846313476562	1272.232055664062	-156.5086212158203	-1448.394653320312	1077.980346679688	-186.9044342041016	-1504.204223632812	1052.429565429688	-127.7717208862305	-1320.774169921875	887.6101684570312	-145.7008361816406	-1368.767944335938	862.568115234375	-206.5563507080078	-1417.66552734375	978.5886840820312	-197.2723083496094	-1336.438232421875	782.295166015625	-197.3607177734375	-1283.894165039062	795.0117797851562	-163.2906951904297	-1488.203857421875	1388.31982421875	225.9243621826172	-1508.442504882812	1324.45703125	282.2502746582031	-1522.9736328125	1064.547241210938	325.2375183105469	-1532.459594726562	1054.365356445312	229.78955078125	-1403.541748046875	845.378662109375	318.379638671875	-1455.616333007812	837.0288696289062	370.8869323730469	-1503.816284179688	999.2666015625	345.8783874511719	-1412.514770507812	672.7604370117188	321.9146728515625	-1454.3427734375	747.3914794921875	372.3890991210938	-1492.644165039062	1603.967895507812	142.9645080566406	-1337.994873046875	1594.231567382812	16.54148864746094	-1358.177978515625	1605.863403320312	136.9045562744141	-1482.309326171875	1587.511108398438	-18.57418441772461	-1467.93701171875	968.8305053710938	-107.8920745849609	-1337.94482421875	970.4987182617188	200.7968139648438	-1354.14453125	964.8447875976562	-63.76046752929688	-1434.517578125	473.9116516113281	-85.72119903564453	-1436.60107421875	617.044677734375	-97.55058288574219	-1563.866333007812	41.609619140625	-52.38178634643555	-1500.899658203125	245.0018920898438	-81.61550140380859	-1352.309326171875	55.54624557495117	12.81544017791748	-1431.955078125	50.03570556640625	43.46804428100586	-1436.23486328125	41.751220703125	-60.72983169555664	-1602.424682617188	40.00963592529297	4.22828197479248	-1420.605834960938	469.3941650390625	214.9818725585938	-1390.979125976562	729.0679321289062	248.5558166503906	-1516.793212890625	58.29362106323242	185.4177398681641	-1422.119995117188	341.8174438476562	198.0125579833984	-1340.04150390625	40.84263229370117	119.6992950439453	-1415.198852539062	44.17832565307617	91.35680389404297	-1432.480712890625	49.25746536254883	190.42333984375	-1590.936157226562	45.81064605712891	133.9280700683594	-1392.7216796875	739.6912841796875	342.9834289550781	-1469.447265625	958.9700317382812	256.3844604492188	-1289.304077148438	710.336181640625	-143.7723236083984	nan	nan	nan	
125	1.24	-1550.814208984375	985.8598022460938	142.0291137695312	-1552.921997070312	980.1441040039062	9.554342269897461	-1554.8466796875	1055.02734375	76.95858001708984	-1318.856323242188	1215.13720703125	88.34633636474609	-1566.724853515625	1159.486938476562	73.93150329589844	-1527.847045898438	1408.552490234375	64.90663146972656	-1373.907348632812	1333.139892578125	84.04435729980469	-1573.408203125	1261.58447265625	128.3160552978516	-1534.65673828125	1371.835571289062	-39.0744514465332	-1445.153442382812	1389.058837890625	-83.24087524414062	-1465.983276367188	1272.097412109375	-155.1524353027344	-1445.497680664062	1077.928833007812	-185.6393890380859	-1501.443359375	1052.318237304688	-126.6272583007812	-1316.942138671875	888.4468994140625	-144.5540008544922	-1364.748657226562	863.0665283203125	-205.4342498779297	-1414.433227539062	978.7508544921875	-196.1136474609375	-1331.8271484375	783.0158081054688	-196.3323669433594	-1279.787231445312	796.0029296875	-162.3027801513672	-1485.713623046875	1388.132080078125	227.2136688232422	-1506.161987304688	1324.29296875	283.4742126464844	-1521.68359375	1064.429321289062	326.2085876464844	-1530.953002929688	1054.381958007812	230.7286834716797	-1403.604370117188	844.48876953125	319.5031127929688	-1455.92724609375	836.4674682617188	371.853515625	-1502.983154296875	999.0760498046875	346.88134765625	-1413.798461914062	671.9303588867188	322.8365478515625	-1455.309814453125	746.8477783203125	373.2549438476562	-1489.934326171875	1603.787841796875	144.0678253173828	-1335.433349609375	1593.941650390625	17.44213485717773	-1355.481323242188	1605.725463867188	137.8493041992188	-1479.7529296875	1587.154907226562	-17.46296501159668	-1465.828735351562	968.8662719726562	-107.3131942749023	-1336.061889648438	970.0945434570312	202.2579956054688	-1352.001708984375	964.6246337890625	-62.34306335449219	-1432.77783203125	473.8014221191406	-84.73616027832031	-1434.523559570312	616.9577026367188	-96.25556945800781	-1563.787841796875	41.56062316894531	-52.47079849243164	-1500.202514648438	245.2256469726562	-81.19601440429688	-1352.238525390625	54.89640426635742	13.0105037689209	-1432.1279296875	49.80276870727539	43.59430313110352	-1436.172241210938	41.63719940185547	-60.74748611450195	-1602.325439453125	40.18169021606445	4.115910530090332	-1419.67822265625	468.9993591308594	215.845947265625	-1389.502075195312	728.6572875976562	249.6614379882812	-1516.795043945312	58.16455841064453	185.51953125	-1421.45263671875	341.4121704101562	198.6690673828125	-1339.9345703125	40.68952941894531	119.6108932495117	-1415.212280273438	44.17172622680664	91.43108367919922	-1432.448608398438	49.03964996337891	190.4983978271484	-1590.942504882812	45.81074142456055	134.0332794189453	-1393.572021484375	738.7420043945312	344.0852355957031	-1467.762939453125	958.5697631835938	257.4852294921875	-1284.207641601562	711.3499145507812	-142.9037628173828	nan	nan	nan	
